<svg width="94" height="26" viewBox="0 0 94 26" fill="none" xmlns="http://www.w3.org/2000/svg">
<rect width="94" height="26" rx="13" fill="#F1EFFD"/>
<circle cx="11" cy="13" r="3" fill="#5534DA"/>
<path d="M28.1445 12.7578C28.1445 13.6367 27.9844 14.4062 27.6641 15.0664C27.3438 15.7227 26.8984 16.2285 26.3281 16.584C25.7617 16.9395 25.1172 17.1172 24.3945 17.1172C23.668 17.1172 23.0215 16.9395 22.4551 16.584C21.8887 16.2285 21.4453 15.7227 21.125 15.0664C20.8047 14.4062 20.6445 13.6367 20.6445 12.7578C20.6445 11.8789 20.8047 11.1113 21.125 10.4551C21.4453 9.79492 21.8887 9.28711 22.4551 8.93164C23.0215 8.57617 23.668 8.39844 24.3945 8.39844C25.1172 8.39844 25.7617 8.57617 26.3281 8.93164C26.8984 9.28711 27.3438 9.79492 27.6641 10.4551C27.9844 11.1113 28.1445 11.8789 28.1445 12.7578ZM27.125 12.7578C27.125 12.0469 27.0059 11.4375 26.7676 10.9297C26.5293 10.4219 26.2031 10.0371 25.7891 9.77539C25.3789 9.51367 24.9141 9.38281 24.3945 9.38281C23.875 9.38281 23.4082 9.51367 22.9941 9.77539C22.584 10.0371 22.2598 10.4219 22.0215 10.9297C21.7832 11.4375 21.6641 12.0469 21.6641 12.7578C21.6641 13.4688 21.7832 14.0781 22.0215 14.5859C22.2598 15.0938 22.584 15.4785 22.9941 15.7402C23.4082 16.002 23.875 16.1328 24.3945 16.1328C24.9141 16.1328 25.3789 16.002 25.7891 15.7402C26.2031 15.4785 26.5293 15.0938 26.7676 14.5859C27.0059 14.0781 27.125 13.4688 27.125 12.7578ZM30.5703 17H29.5625V10.6367H30.5352V11.6328H30.6172C30.7773 11.293 31.0098 11.0293 31.3145 10.8418C31.623 10.6504 32.0117 10.5547 32.4805 10.5547C32.918 10.5547 33.2969 10.6445 33.6172 10.8242C33.9375 11 34.1855 11.2676 34.3613 11.627C34.5371 11.9863 34.625 12.4297 34.625 12.957V17H33.6172V13.0273C33.6172 12.5352 33.4902 12.1504 33.2363 11.873C32.9824 11.5957 32.6289 11.457 32.1758 11.457C31.8633 11.457 31.5859 11.5254 31.3438 11.6621C31.1016 11.7949 30.9121 11.9922 30.7754 12.2539C30.6387 12.5117 30.5703 12.8203 30.5703 13.1797V17ZM39.3828 8.51562H42.2656C42.9062 8.51562 43.4434 8.63281 43.877 8.86719C44.3105 9.10156 44.6328 9.42188 44.8438 9.82812C45.0547 10.2305 45.1602 10.6914 45.1602 11.2109C45.1602 11.7266 45.0547 12.1895 44.8438 12.5996C44.6328 13.0059 44.3105 13.3281 43.877 13.5664C43.4473 13.8008 42.9141 13.918 42.2773 13.918H40.4375V17H39.3828V8.51562ZM42.2305 12.9805C42.8711 12.9805 43.3457 12.8203 43.6543 12.5C43.9629 12.1758 44.1172 11.7461 44.1172 11.2109C44.1172 10.6719 43.9629 10.2441 43.6543 9.92773C43.3457 9.61133 42.8672 9.45312 42.2188 9.45312H40.4375V12.9805H42.2305ZM46.5078 10.6367H47.4805V11.6094H47.5508C47.668 11.2852 47.877 11.0254 48.1777 10.8301C48.4785 10.6309 48.8164 10.5312 49.1914 10.5312C49.3867 10.5312 49.5625 10.5391 49.7188 10.5547V11.5742C49.6758 11.5586 49.5918 11.543 49.4668 11.5273C49.3457 11.5117 49.2266 11.5039 49.1094 11.5039C48.8086 11.5039 48.5371 11.5684 48.2949 11.6973C48.0527 11.8262 47.8613 12.0039 47.7207 12.2305C47.584 12.457 47.5156 12.7109 47.5156 12.9922V17H46.5078V10.6367ZM53.0938 17.1289C52.5195 17.1289 52.0117 16.9941 51.5703 16.7246C51.1328 16.4512 50.793 16.0664 50.5508 15.5703C50.3086 15.0742 50.1875 14.5 50.1875 13.8477C50.1875 13.1953 50.3086 12.6211 50.5508 12.125C50.793 11.625 51.1328 11.2383 51.5703 10.9648C52.0117 10.6914 52.5195 10.5547 53.0938 10.5547C53.6641 10.5547 54.166 10.6914 54.5996 10.9648C55.0371 11.2383 55.375 11.625 55.6133 12.125C55.8555 12.6211 55.9766 13.1953 55.9766 13.8477C55.9766 14.5 55.8555 15.0742 55.6133 15.5703C55.375 16.0664 55.0371 16.4512 54.5996 16.7246C54.166 16.9941 53.6641 17.1289 53.0938 17.1289ZM53.0938 16.2383C53.5039 16.2383 53.8496 16.1309 54.1309 15.916C54.4121 15.6973 54.6211 15.4082 54.7578 15.0488C54.8984 14.6855 54.9688 14.2852 54.9688 13.8477C54.9688 13.4102 54.8984 13.0098 54.7578 12.6465C54.6211 12.2832 54.4121 11.9922 54.1309 11.7734C53.8496 11.5547 53.5039 11.4453 53.0938 11.4453C52.6758 11.4453 52.3242 11.5547 52.0391 11.7734C51.7578 11.9922 51.5469 12.2832 51.4062 12.6465C51.2656 13.0098 51.1953 13.4102 51.1953 13.8477C51.1953 14.2852 51.2656 14.6855 51.4062 15.0488C51.5469 15.4082 51.7578 15.6973 52.0391 15.916C52.3242 16.1309 52.6758 16.2383 53.0938 16.2383ZM59.8789 19.5195C59.3672 19.5195 58.9141 19.4473 58.5195 19.3027C58.1289 19.1582 57.8184 18.9473 57.5879 18.6699C57.3574 18.3926 57.2227 18.0586 57.1836 17.668H58.2383C58.3086 17.9883 58.4844 18.2305 58.7656 18.3945C59.0508 18.5586 59.4219 18.6406 59.8789 18.6406C60.4414 18.6406 60.875 18.5156 61.1797 18.2656C61.4844 18.0156 61.6367 17.6328 61.6367 17.1172V15.8281H61.5547C61.4414 16.0195 61.3223 16.1875 61.1973 16.332C61.0723 16.4766 60.8848 16.6094 60.6348 16.7305C60.3887 16.8477 60.0781 16.9062 59.7031 16.9062C59.1836 16.9062 58.7188 16.7793 58.3086 16.5254C57.8984 16.2715 57.5762 15.9062 57.3418 15.4297C57.1113 14.9492 56.9961 14.3828 56.9961 13.7305C56.9961 13.0898 57.1113 12.5293 57.3418 12.0488C57.5723 11.5684 57.8926 11.1992 58.3027 10.9414C58.7129 10.6836 59.1836 10.5547 59.7148 10.5547C60.0859 10.5547 60.3945 10.6152 60.6406 10.7363C60.8906 10.8574 61.0684 10.9824 61.1738 11.1113C61.2832 11.2363 61.418 11.4141 61.5781 11.6445H61.6602V10.6367H62.6445V17.1758C62.6445 17.7031 62.5234 18.1406 62.2812 18.4883C62.043 18.8398 61.7168 19.0996 61.3027 19.2676C60.8887 19.4355 60.4141 19.5195 59.8789 19.5195ZM59.8438 16.0039C60.4219 16.0039 60.8691 15.8086 61.1855 15.418C61.502 15.0234 61.6602 14.4727 61.6602 13.7656C61.6602 13.3086 61.5898 12.9062 61.4492 12.5586C61.3086 12.2109 61.1016 11.9414 60.8281 11.75C60.5586 11.5547 60.2305 11.457 59.8438 11.457C59.4492 11.457 59.1152 11.5586 58.8418 11.7617C58.5684 11.9648 58.3613 12.2422 58.2207 12.5938C58.084 12.9414 58.0156 13.332 58.0156 13.7656C58.0156 14.2109 58.084 14.6016 58.2207 14.9375C58.3613 15.2734 58.5684 15.5352 58.8418 15.7227C59.1152 15.9102 59.4492 16.0039 59.8438 16.0039ZM64.25 10.6367H65.2227V11.6094H65.293C65.4102 11.2852 65.6191 11.0254 65.9199 10.8301C66.2207 10.6309 66.5586 10.5312 66.9336 10.5312C67.1289 10.5312 67.3047 10.5391 67.4609 10.5547V11.5742C67.418 11.5586 67.334 11.543 67.209 11.5273C67.0879 11.5117 66.9688 11.5039 66.8516 11.5039C66.5508 11.5039 66.2793 11.5684 66.0371 11.6973C65.7949 11.8262 65.6035 12.0039 65.4629 12.2305C65.3262 12.457 65.2578 12.7109 65.2578 12.9922V17H64.25V10.6367ZM70.9062 17.1289C70.3008 17.1289 69.7734 16.9941 69.3242 16.7246C68.875 16.4551 68.5293 16.0742 68.2871 15.582C68.0488 15.0898 67.9297 14.5195 67.9297 13.8711C67.9297 13.2227 68.0488 12.6484 68.2871 12.1484C68.5293 11.6445 68.8672 11.2539 69.3008 10.9766C69.7383 10.6953 70.2422 10.5547 70.8125 10.5547C71.293 10.5547 71.7402 10.6621 72.1543 10.877C72.5684 11.0879 72.9043 11.4316 73.1621 11.9082C73.4238 12.3809 73.5547 12.9883 73.5547 13.7305V14.1523H68.9375C68.9531 14.5938 69.0449 14.9707 69.2129 15.2832C69.3809 15.5957 69.6094 15.834 69.8984 15.998C70.1914 16.1582 70.5273 16.2383 70.9062 16.2383C71.2656 16.2383 71.5684 16.1719 71.8145 16.0391C72.0645 15.9023 72.2539 15.7266 72.3828 15.5117H73.4609C73.3594 15.832 73.1895 16.1152 72.9512 16.3613C72.7168 16.6035 72.4238 16.793 72.0723 16.9297C71.7246 17.0625 71.3359 17.1289 70.9062 17.1289ZM72.5352 13.2969C72.5352 12.9414 72.4629 12.625 72.3184 12.3477C72.1777 12.0664 71.9766 11.8457 71.7148 11.6855C71.4531 11.5254 71.1523 11.4453 70.8125 11.4453C70.457 11.4453 70.1406 11.5293 69.8633 11.6973C69.5898 11.8652 69.373 12.0918 69.2129 12.377C69.0566 12.6582 68.9668 12.9648 68.9434 13.2969H72.5352ZM78.4062 12.2891C78.332 12.0117 78.1875 11.7969 77.9727 11.6445C77.7617 11.4883 77.4766 11.4102 77.1172 11.4102C76.8594 11.4102 76.627 11.4531 76.4199 11.5391C76.2168 11.6211 76.0566 11.7363 75.9395 11.8848C75.8262 12.0293 75.7695 12.1914 75.7695 12.3711C75.7695 12.582 75.8574 12.7617 76.0332 12.9102C76.2129 13.0586 76.4883 13.1758 76.8594 13.2617L77.8086 13.4961C78.3789 13.6328 78.8047 13.8438 79.0859 14.1289C79.3672 14.4102 79.5078 14.7734 79.5078 15.2188C79.5078 15.5898 79.4082 15.9199 79.209 16.209C79.0137 16.4941 78.7285 16.7188 78.3535 16.8828C77.9785 17.0469 77.5312 17.1289 77.0117 17.1289C76.2969 17.1289 75.7305 16.9766 75.3125 16.6719C74.8945 16.3633 74.6445 15.918 74.5625 15.3359H75.6172C75.6758 15.6445 75.8184 15.875 76.0449 16.0273C76.2715 16.1758 76.5859 16.25 76.9883 16.25C77.4414 16.25 77.8008 16.1621 78.0664 15.9863C78.332 15.8105 78.4648 15.5742 78.4648 15.2773C78.4648 15.0508 78.3809 14.8633 78.2129 14.7148C78.0449 14.5625 77.7812 14.4453 77.4219 14.3633L76.4609 14.1406C75.9062 14.0117 75.4844 13.8008 75.1953 13.5078C74.9062 13.2148 74.7617 12.8555 74.7617 12.4297C74.7617 12.0703 74.8594 11.748 75.0547 11.4629C75.2539 11.1777 75.5312 10.9551 75.8867 10.7949C76.2461 10.6348 76.6562 10.5547 77.1172 10.5547C77.5469 10.5547 77.9258 10.627 78.2539 10.7715C78.582 10.916 78.8418 11.1191 79.0332 11.3809C79.2285 11.6426 79.3477 11.9453 79.3906 12.2891H78.4062ZM84.3594 12.2891C84.2852 12.0117 84.1406 11.7969 83.9258 11.6445C83.7148 11.4883 83.4297 11.4102 83.0703 11.4102C82.8125 11.4102 82.5801 11.4531 82.373 11.5391C82.1699 11.6211 82.0098 11.7363 81.8926 11.8848C81.7793 12.0293 81.7227 12.1914 81.7227 12.3711C81.7227 12.582 81.8105 12.7617 81.9863 12.9102C82.166 13.0586 82.4414 13.1758 82.8125 13.2617L83.7617 13.4961C84.332 13.6328 84.7578 13.8438 85.0391 14.1289C85.3203 14.4102 85.4609 14.7734 85.4609 15.2188C85.4609 15.5898 85.3613 15.9199 85.1621 16.209C84.9668 16.4941 84.6816 16.7188 84.3066 16.8828C83.9316 17.0469 83.4844 17.1289 82.9648 17.1289C82.25 17.1289 81.6836 16.9766 81.2656 16.6719C80.8477 16.3633 80.5977 15.918 80.5156 15.3359H81.5703C81.6289 15.6445 81.7715 15.875 81.998 16.0273C82.2246 16.1758 82.5391 16.25 82.9414 16.25C83.3945 16.25 83.7539 16.1621 84.0195 15.9863C84.2852 15.8105 84.418 15.5742 84.418 15.2773C84.418 15.0508 84.334 14.8633 84.166 14.7148C83.998 14.5625 83.7344 14.4453 83.375 14.3633L82.4141 14.1406C81.8594 14.0117 81.4375 13.8008 81.1484 13.5078C80.8594 13.2148 80.7148 12.8555 80.7148 12.4297C80.7148 12.0703 80.8125 11.748 81.0078 11.4629C81.207 11.1777 81.4844 10.9551 81.8398 10.7949C82.1992 10.6348 82.6094 10.5547 83.0703 10.5547C83.5 10.5547 83.8789 10.627 84.207 10.7715C84.5352 10.916 84.7949 11.1191 84.9863 11.3809C85.1816 11.6426 85.3008 11.9453 85.3438 12.2891H84.3594Z" fill="#5534DA"/>
</svg>
