<svg width="60" height="26" viewBox="0 0 60 26" fill="none" xmlns="http://www.w3.org/2000/svg">
<rect width="60" height="26" rx="13" fill="#F1EFFD"/>
<circle cx="11" cy="13" r="3" fill="#5534DA"/>
<path d="M20.8359 8.51562H27.2344V9.45312H24.5742V17H23.5078V9.45312H20.8359V8.51562ZM30.1875 17.1289C29.6133 17.1289 29.1055 16.9941 28.6641 16.7246C28.2266 16.4512 27.8867 16.0664 27.6445 15.5703C27.4023 15.0742 27.2812 14.5 27.2812 13.8477C27.2812 13.1953 27.4023 12.6211 27.6445 12.125C27.8867 11.625 28.2266 11.2383 28.6641 10.9648C29.1055 10.6914 29.6133 10.5547 30.1875 10.5547C30.7578 10.5547 31.2598 10.6914 31.6934 10.9648C32.1309 11.2383 32.4688 11.625 32.707 12.125C32.9492 12.6211 33.0703 13.1953 33.0703 13.8477C33.0703 14.5 32.9492 15.0742 32.707 15.5703C32.4688 16.0664 32.1309 16.4512 31.6934 16.7246C31.2598 16.9941 30.7578 17.1289 30.1875 17.1289ZM30.1875 16.2383C30.5977 16.2383 30.9434 16.1309 31.2246 15.916C31.5059 15.6973 31.7148 15.4082 31.8516 15.0488C31.9922 14.6855 32.0625 14.2852 32.0625 13.8477C32.0625 13.4102 31.9922 13.0098 31.8516 12.6465C31.7148 12.2832 31.5059 11.9922 31.2246 11.7734C30.9434 11.5547 30.5977 11.4453 30.1875 11.4453C29.7695 11.4453 29.418 11.5547 29.1328 11.7734C28.8516 11.9922 28.6406 12.2832 28.5 12.6465C28.3594 13.0098 28.2891 13.4102 28.2891 13.8477C28.2891 14.2852 28.3594 14.6855 28.5 15.0488C28.6406 15.4082 28.8516 15.6973 29.1328 15.916C29.418 16.1309 29.7695 16.2383 30.1875 16.2383ZM37.5352 17V8.51562H40.2773C41.0938 8.51562 41.7969 8.68555 42.3867 9.02539C42.9805 9.36133 43.4336 9.84766 43.7461 10.4844C44.0586 11.1172 44.2148 11.8711 44.2148 12.7461C44.2148 13.6289 44.0566 14.3887 43.7402 15.0254C43.4238 15.6621 42.9629 16.1504 42.3574 16.4902C41.752 16.8301 41.0234 17 40.1719 17H37.5352ZM40.1016 16.0625C41.125 16.0625 41.8945 15.7734 42.4102 15.1953C42.9258 14.6172 43.1836 13.8008 43.1836 12.7461C43.1836 11.7031 42.9316 10.8945 42.4277 10.3203C41.9238 9.74219 41.1836 9.45312 40.207 9.45312H38.5898V16.0625H40.1016ZM48.2344 17.1289C47.6602 17.1289 47.1523 16.9941 46.7109 16.7246C46.2734 16.4512 45.9336 16.0664 45.6914 15.5703C45.4492 15.0742 45.3281 14.5 45.3281 13.8477C45.3281 13.1953 45.4492 12.6211 45.6914 12.125C45.9336 11.625 46.2734 11.2383 46.7109 10.9648C47.1523 10.6914 47.6602 10.5547 48.2344 10.5547C48.8047 10.5547 49.3066 10.6914 49.7402 10.9648C50.1777 11.2383 50.5156 11.625 50.7539 12.125C50.9961 12.6211 51.1172 13.1953 51.1172 13.8477C51.1172 14.5 50.9961 15.0742 50.7539 15.5703C50.5156 16.0664 50.1777 16.4512 49.7402 16.7246C49.3066 16.9941 48.8047 17.1289 48.2344 17.1289ZM48.2344 16.2383C48.6445 16.2383 48.9902 16.1309 49.2715 15.916C49.5527 15.6973 49.7617 15.4082 49.8984 15.0488C50.0391 14.6855 50.1094 14.2852 50.1094 13.8477C50.1094 13.4102 50.0391 13.0098 49.8984 12.6465C49.7617 12.2832 49.5527 11.9922 49.2715 11.7734C48.9902 11.5547 48.6445 11.4453 48.2344 11.4453C47.8164 11.4453 47.4648 11.5547 47.1797 11.7734C46.8984 11.9922 46.6875 12.2832 46.5469 12.6465C46.4062 13.0098 46.3359 13.4102 46.3359 13.8477C46.3359 14.2852 46.4062 14.6855 46.5469 15.0488C46.6875 15.4082 46.8984 15.6973 47.1797 15.916C47.4648 16.1309 47.8164 16.2383 48.2344 16.2383Z" fill="#5534DA"/>
</svg>
