<svg width="57" height="26" viewBox="0 0 57 26" fill="none" xmlns="http://www.w3.org/2000/svg">
<rect width="57" height="26" rx="13" fill="#F1EFFD"/>
<circle cx="11" cy="13" r="3" fill="#5534DA"/>
<path d="M21.2637 17V8.51562H24.0059C24.8223 8.51562 25.5254 8.68555 26.1152 9.02539C26.709 9.36133 27.1621 9.84766 27.4746 10.4844C27.7871 11.1172 27.9434 11.8711 27.9434 12.7461C27.9434 13.6289 27.7852 14.3887 27.4688 15.0254C27.1523 15.6621 26.6914 16.1504 26.0859 16.4902C25.4805 16.8301 24.752 17 23.9004 17H21.2637ZM23.8301 16.0625C24.8535 16.0625 25.623 15.7734 26.1387 15.1953C26.6543 14.6172 26.9121 13.8008 26.9121 12.7461C26.9121 11.7031 26.6602 10.8945 26.1562 10.3203C25.6523 9.74219 24.9121 9.45312 23.9355 9.45312H22.3184V16.0625H23.8301ZM31.9629 17.1289C31.3887 17.1289 30.8809 16.9941 30.4395 16.7246C30.002 16.4512 29.6621 16.0664 29.4199 15.5703C29.1777 15.0742 29.0566 14.5 29.0566 13.8477C29.0566 13.1953 29.1777 12.6211 29.4199 12.125C29.6621 11.625 30.002 11.2383 30.4395 10.9648C30.8809 10.6914 31.3887 10.5547 31.9629 10.5547C32.5332 10.5547 33.0352 10.6914 33.4688 10.9648C33.9062 11.2383 34.2441 11.625 34.4824 12.125C34.7246 12.6211 34.8457 13.1953 34.8457 13.8477C34.8457 14.5 34.7246 15.0742 34.4824 15.5703C34.2441 16.0664 33.9062 16.4512 33.4688 16.7246C33.0352 16.9941 32.5332 17.1289 31.9629 17.1289ZM31.9629 16.2383C32.373 16.2383 32.7188 16.1309 33 15.916C33.2812 15.6973 33.4902 15.4082 33.627 15.0488C33.7676 14.6855 33.8379 14.2852 33.8379 13.8477C33.8379 13.4102 33.7676 13.0098 33.627 12.6465C33.4902 12.2832 33.2812 11.9922 33 11.7734C32.7188 11.5547 32.373 11.4453 31.9629 11.4453C31.5449 11.4453 31.1934 11.5547 30.9082 11.7734C30.627 11.9922 30.416 12.2832 30.2754 12.6465C30.1348 13.0098 30.0645 13.4102 30.0645 13.8477C30.0645 14.2852 30.1348 14.6855 30.2754 15.0488C30.416 15.4082 30.627 15.6973 30.9082 15.916C31.1934 16.1309 31.5449 16.2383 31.9629 16.2383ZM37.1777 17H36.1699V10.6367H37.1426V11.6328H37.2246C37.3848 11.293 37.6172 11.0293 37.9219 10.8418C38.2305 10.6504 38.6191 10.5547 39.0879 10.5547C39.5254 10.5547 39.9043 10.6445 40.2246 10.8242C40.5449 11 40.793 11.2676 40.9688 11.627C41.1445 11.9863 41.2324 12.4297 41.2324 12.957V17H40.2246V13.0273C40.2246 12.5352 40.0977 12.1504 39.8438 11.873C39.5898 11.5957 39.2363 11.457 38.7832 11.457C38.4707 11.457 38.1934 11.5254 37.9512 11.6621C37.709 11.7949 37.5195 11.9922 37.3828 12.2539C37.2461 12.5117 37.1777 12.8203 37.1777 13.1797V17ZM45.5215 17.1289C44.916 17.1289 44.3887 16.9941 43.9395 16.7246C43.4902 16.4551 43.1445 16.0742 42.9023 15.582C42.6641 15.0898 42.5449 14.5195 42.5449 13.8711C42.5449 13.2227 42.6641 12.6484 42.9023 12.1484C43.1445 11.6445 43.4824 11.2539 43.916 10.9766C44.3535 10.6953 44.8574 10.5547 45.4277 10.5547C45.9082 10.5547 46.3555 10.6621 46.7695 10.877C47.1836 11.0879 47.5195 11.4316 47.7773 11.9082C48.0391 12.3809 48.1699 12.9883 48.1699 13.7305V14.1523H43.5527C43.5684 14.5938 43.6602 14.9707 43.8281 15.2832C43.9961 15.5957 44.2246 15.834 44.5137 15.998C44.8066 16.1582 45.1426 16.2383 45.5215 16.2383C45.8809 16.2383 46.1836 16.1719 46.4297 16.0391C46.6797 15.9023 46.8691 15.7266 46.998 15.5117H48.0762C47.9746 15.832 47.8047 16.1152 47.5664 16.3613C47.332 16.6035 47.0391 16.793 46.6875 16.9297C46.3398 17.0625 45.9512 17.1289 45.5215 17.1289ZM47.1504 13.2969C47.1504 12.9414 47.0781 12.625 46.9336 12.3477C46.793 12.0664 46.5918 11.8457 46.3301 11.6855C46.0684 11.5254 45.7676 11.4453 45.4277 11.4453C45.0723 11.4453 44.7559 11.5293 44.4785 11.6973C44.2051 11.8652 43.9883 12.0918 43.8281 12.377C43.6719 12.6582 43.582 12.9648 43.5586 13.2969H47.1504Z" fill="#5534DA"/>
</svg>
